<svg width="1920" height="1856" viewBox="0 0 1920 1856" fill="none" xmlns="http://www.w3.org/2000/svg">
<mask id="mask0" mask-type="alpha" maskUnits="userSpaceOnUse" x="-1" y="-6" width="1921" height="1862">
<rect x="-1" y="-6" width="1921" height="1862" fill="white"/>
</mask>
<g mask="url(#mask0)">
<rect x="-1" y="-6" width="1921" height="1862" fill="url(#paint0_radial)"/>
</g>
<g filter="url(#filter0_f)">
<path d="M2170.11 437.348C2494.91 669.351 2699.68 -151.635 2424.67 915.974C1082.56 1920.14 2031.86 930.906 1707.06 698.903C1382.26 466.9 1054.47 285.608 1248.46 75.8155C1442.46 -133.977 1845.31 205.345 2170.11 437.348Z" fill="#0D1128"/>
</g>
<g filter="url(#filter1_f)">
<path d="M290.869 714.851C78.4401 979.932 67.1331 1033.57 -200.723 930.903C-990.856 -256.807 -261.74 544.766 -49.3111 279.685C163.118 14.6034 399.408 -203.758 568.551 -29.0413C737.693 145.675 503.298 449.77 290.869 714.851Z" fill="#0D1329"/>
</g>
<g filter="url(#filter2_f)">
<circle cx="1383" cy="1149" r="617" fill="url(#paint1_radial)"/>
</g>
<g filter="url(#filter3_f)">
<circle cx="537" cy="1149" r="617" fill="url(#paint2_radial)"/>
</g>
<defs>
<filter id="filter0_f" x="940.414" y="-239.906" width="1862.71" height="1847.71" filterUnits="userSpaceOnUse" color-interpolation-filters="sRGB">
<feFlood flood-opacity="0" result="BackgroundImageFix"/>
<feBlend mode="normal" in="SourceGraphic" in2="BackgroundImageFix" result="shape"/>
<feGaussianBlur stdDeviation="125" result="effect1_foregroundBlur"/>
</filter>
<filter id="filter1_f" x="-809.855" y="-341.789" width="1686.34" height="1571.47" filterUnits="userSpaceOnUse" color-interpolation-filters="sRGB">
<feFlood flood-opacity="0" result="BackgroundImageFix"/>
<feBlend mode="normal" in="SourceGraphic" in2="BackgroundImageFix" result="shape"/>
<feGaussianBlur stdDeviation="125" result="effect1_foregroundBlur"/>
</filter>
<filter id="filter2_f" x="706" y="472" width="1354" height="1354" filterUnits="userSpaceOnUse" color-interpolation-filters="sRGB">
<feFlood flood-opacity="0" result="BackgroundImageFix"/>
<feBlend mode="normal" in="SourceGraphic" in2="BackgroundImageFix" result="shape"/>
<feGaussianBlur stdDeviation="30" result="effect1_foregroundBlur"/>
</filter>
<filter id="filter3_f" x="-140" y="472" width="1354" height="1354" filterUnits="userSpaceOnUse" color-interpolation-filters="sRGB">
<feFlood flood-opacity="0" result="BackgroundImageFix"/>
<feBlend mode="normal" in="SourceGraphic" in2="BackgroundImageFix" result="shape"/>
<feGaussianBlur stdDeviation="30" result="effect1_foregroundBlur"/>
</filter>
<radialGradient id="paint0_radial" cx="0" cy="0" r="1" gradientUnits="userSpaceOnUse" gradientTransform="translate(959.5 -6) rotate(90) scale(1862 1921)">
<stop stop-color="#0E1232"/>
<stop offset="1" stop-color="#021413"/>
</radialGradient>
<radialGradient id="paint1_radial" cx="0" cy="0" r="1" gradientUnits="userSpaceOnUse" gradientTransform="translate(1383 1149) rotate(90) scale(617)">
<stop stop-color="#407BBA"/>
<stop offset="1" stop-color="#031E1B" stop-opacity="0"/>
</radialGradient>
<radialGradient id="paint2_radial" cx="0" cy="0" r="1" gradientUnits="userSpaceOnUse" gradientTransform="translate(537 1149) rotate(90) scale(617)">
<stop stop-color="#21DFCD"/>
<stop offset="1" stop-color="#031E1B" stop-opacity="0"/>
</radialGradient>
</defs>
</svg>
